<svg width="2" height="2" viewBox="0 0 2 2" fill="none" xmlns="http://www.w3.org/2000/svg">
<path d="M1.50638 0.847473L1.48595 0.710865C1.47582 0.64316 1.3953 0.612874 1.34306 0.657121L1.26538 0.72292C1.23325 0.750136 1.1841 0.73992 1.16548 0.702156L1.04175 0.451278C1.02467 0.416631 0.975263 0.416631 0.958173 0.451278L0.834448 0.702156C0.815824 0.73992 0.766672 0.750136 0.734542 0.72292L0.656864 0.657121C0.604625 0.612874 0.524104 0.64316 0.513978 0.710865L0.493543 0.847473C0.487143 0.890261 0.441379 0.914853 0.402167 0.896575L0.234293 0.818332C0.157584 0.782579 0.0798309 0.865669 0.120595 0.939841L0.402896 1.4535H1.59704L1.87934 0.939841C1.92011 0.865673 1.84235 0.782579 1.76564 0.818332L1.59776 0.896575C1.55855 0.914853 1.51278 0.890261 1.50638 0.847473Z" fill="url(#paint0_linear_418_2)"/>
<path d="M1.46261 0.902632L1.44394 0.778432C1.43469 0.716876 1.36113 0.689338 1.31342 0.72957L1.24246 0.789393C1.21312 0.814138 1.16822 0.804848 1.15121 0.770515L1.03819 0.542425C1.02258 0.510923 0.977454 0.510923 0.961846 0.542425L0.848831 0.770515C0.831819 0.804848 0.786922 0.814138 0.757573 0.789393L0.68662 0.729574C0.638906 0.689346 0.565354 0.716879 0.556103 0.778436L0.537436 0.902636C0.531589 0.941537 0.489789 0.963894 0.45397 0.947279L0.300629 0.876142C0.230559 0.843636 0.159539 0.919181 0.196771 0.986612L0.454633 1.45361H1.54541L1.80327 0.986612C1.84051 0.919181 1.76948 0.843636 1.69941 0.876142L1.54607 0.947279C1.51025 0.96389 1.46845 0.941534 1.46261 0.902632Z" fill="url(#paint1_linear_418_2)"/>
<path d="M1.40913 0.968938L1.39262 0.859703C1.38444 0.805566 1.31938 0.781346 1.27718 0.816726L1.21442 0.869342C1.18846 0.891107 1.14874 0.882934 1.1337 0.852738L1.03373 0.652127C1.01993 0.624421 0.98001 0.624421 0.966203 0.652127L0.866238 0.852738C0.851191 0.882938 0.811478 0.891107 0.785517 0.869342L0.722749 0.816726C0.680541 0.781346 0.615482 0.805562 0.607302 0.859703L0.590792 0.968938C0.58562 1.00315 0.548647 1.02282 0.516961 1.0082L0.381326 0.945632C0.319346 0.917044 0.256527 0.983483 0.28946 1.04279L0.517549 1.45352H1.48238L1.71047 1.04279C1.7434 0.983483 1.68058 0.917044 1.6186 0.945632L1.48297 1.0082C1.45128 1.02282 1.41431 1.00315 1.40913 0.968938Z" fill="url(#paint2_linear_418_2)"/>
<path d="M1.62528 1.53865H0.374669C0.323615 1.53865 0.282227 1.49726 0.282227 1.4462C0.282227 1.39515 0.323615 1.35376 0.374669 1.35376H1.62527C1.67633 1.35376 1.71772 1.39515 1.71772 1.4462C1.71772 1.49726 1.67633 1.53865 1.62528 1.53865Z" fill="url(#paint3_linear_418_2)"/>
<path d="M1.62528 1.72346H0.374669C0.323615 1.72346 0.282227 1.68207 0.282227 1.63102C0.282227 1.57996 0.323615 1.53857 0.374669 1.53857H1.62527C1.67633 1.53857 1.71772 1.57996 1.71772 1.63102C1.71772 1.68207 1.67633 1.72346 1.62528 1.72346Z" fill="url(#paint4_linear_418_2)"/>
<path d="M1.14848 0.423231C1.14965 0.505239 1.08411 0.572662 1.00209 0.573834C0.920067 0.575003 0.852624 0.509474 0.851456 0.42747C0.850287 0.345467 0.915828 0.278039 0.997851 0.276871C1.07987 0.275702 1.14731 0.341227 1.14848 0.423231Z" fill="url(#paint5_linear_418_2)"/>
<path d="M1.12388 0.423683C1.12486 0.492122 1.07016 0.548396 1.0017 0.549373C0.933248 0.550349 0.876966 0.495659 0.875989 0.427216C0.875013 0.358777 0.929715 0.302503 0.998169 0.301526C1.06662 0.300554 1.12291 0.355244 1.12388 0.423683Z" fill="url(#paint6_linear_418_2)"/>
<path d="M1.0646 0.291504C1.0749 0.311347 1.08087 0.333825 1.08121 0.3577C1.08238 0.439703 1.01684 0.507131 0.934819 0.508303C0.910936 0.508644 0.888297 0.503319 0.868164 0.493589C0.893242 0.541899 0.944046 0.574585 1.00218 0.573758C1.0842 0.572589 1.14975 0.505162 1.14858 0.423154C1.14774 0.365033 1.11361 0.31519 1.0646 0.291504Z" fill="url(#paint7_linear_418_2)"/>
<path d="M0.724776 0.635634C0.725945 0.717641 0.660404 0.785064 0.578381 0.786237C0.496361 0.787406 0.428918 0.721876 0.42775 0.639873C0.426581 0.557869 0.492122 0.490442 0.574145 0.489273C0.656165 0.488097 0.723604 0.553626 0.724776 0.635634Z" fill="url(#paint8_linear_418_2)"/>
<path d="M0.700177 0.635841C0.701153 0.70428 0.646451 0.760554 0.577997 0.761531C0.509542 0.762507 0.45326 0.707817 0.452283 0.639374C0.451307 0.570936 0.506009 0.514661 0.574463 0.513685C0.642918 0.512708 0.6992 0.567402 0.700177 0.635841Z" fill="url(#paint9_linear_418_2)"/>
<path d="M0.640774 0.503906C0.651076 0.523749 0.657045 0.546228 0.657386 0.570102C0.658555 0.652106 0.593014 0.719533 0.510991 0.720705C0.487108 0.721047 0.464469 0.715721 0.444336 0.705992C0.469414 0.754301 0.520218 0.786988 0.578355 0.78616C0.660374 0.784992 0.725919 0.717564 0.724751 0.635557C0.723919 0.577431 0.68979 0.527592 0.640774 0.503906Z" fill="url(#paint10_linear_418_2)"/>
<path d="M1.57231 0.635634C1.57348 0.717641 1.50794 0.785064 1.42591 0.786237C1.3439 0.787406 1.27645 0.721876 1.27528 0.639873C1.27412 0.557869 1.33966 0.490442 1.42168 0.489273C1.5037 0.488097 1.57114 0.553626 1.57231 0.635634Z" fill="url(#paint11_linear_418_2)"/>
<path d="M1.54771 0.635841C1.54869 0.70428 1.49399 0.760554 1.42553 0.761531C1.35708 0.762507 1.30079 0.707817 1.29982 0.639374C1.29884 0.570936 1.35354 0.514661 1.422 0.513685C1.49045 0.512708 1.54673 0.567402 1.54771 0.635841Z" fill="url(#paint12_linear_418_2)"/>
<path d="M1.48831 0.503906C1.49861 0.523749 1.50458 0.546228 1.50492 0.570102C1.50609 0.652106 1.44055 0.719533 1.35852 0.720705C1.33464 0.721047 1.312 0.715721 1.29187 0.705992C1.31695 0.754301 1.36775 0.786988 1.42589 0.78616C1.50791 0.784992 1.57345 0.717564 1.57228 0.635557C1.57145 0.577431 1.53732 0.527592 1.48831 0.503906Z" fill="url(#paint13_linear_418_2)"/>
<path d="M0.297042 0.867327C0.29821 0.949335 0.232669 1.01676 0.150646 1.01793C0.0686269 1.0191 0.00118401 0.95357 1.53879e-05 0.871566C-0.00115324 0.789562 0.0643877 0.722135 0.146411 0.720963C0.228434 0.71979 0.295873 0.785323 0.297042 0.867327Z" fill="url(#paint14_linear_418_2)"/>
<path d="M0.272442 0.868019C0.273419 0.936458 0.218717 0.992732 0.150262 0.993709C0.0818076 0.994685 0.0255255 0.939995 0.024549 0.871552C0.0235725 0.803113 0.0782743 0.746839 0.146729 0.745862C0.215184 0.744886 0.271466 0.79958 0.272442 0.868019Z" fill="url(#paint15_linear_418_2)"/>
<path d="M0.21304 0.73584C0.223342 0.755683 0.229311 0.778161 0.229652 0.802036C0.23082 0.884039 0.165279 0.951467 0.0832562 0.952639C0.0593739 0.95298 0.0367348 0.947655 0.0166016 0.937925C0.0416799 0.986235 0.0924836 1.01892 0.150621 1.01809C0.23264 1.01693 0.298185 0.949498 0.297016 0.86749C0.296185 0.809369 0.262056 0.759526 0.21304 0.73584Z" fill="url(#paint16_linear_418_2)"/>
<path d="M1.99992 0.867571C2.00109 0.949579 1.93555 1.017 1.85353 1.01817C1.77151 1.01934 1.70407 0.953814 1.7029 0.87181C1.70173 0.789807 1.76727 0.722379 1.84929 0.721207C1.93132 0.720034 1.99875 0.785567 1.99992 0.867571Z" fill="url(#paint17_linear_418_2)"/>
<path d="M1.97532 0.868263C1.9763 0.936702 1.9216 0.992976 1.85314 0.993953C1.78469 0.994929 1.72841 0.940239 1.72743 0.871796C1.72645 0.803357 1.78116 0.747083 1.84961 0.746107C1.91806 0.74513 1.97435 0.799824 1.97532 0.868263Z" fill="url(#paint18_linear_418_2)"/>
<path d="M1.91592 0.736084C1.92622 0.755927 1.93219 0.778405 1.93253 0.80228C1.9337 0.884283 1.86816 0.951711 1.78614 0.952883C1.76225 0.953224 1.73962 0.947899 1.71948 0.93817C1.74456 0.986479 1.79536 1.01917 1.8535 1.01834C1.93552 1.01717 2.00107 0.949742 1.9999 0.867735C1.99907 0.809613 1.96493 0.75977 1.91592 0.736084Z" fill="url(#paint19_linear_418_2)"/>
<path d="M0.969177 0.774192L0.798276 1.02119C0.789409 1.03401 0.789409 1.05098 0.798276 1.0638L0.969177 1.3108C0.984064 1.33232 1.01587 1.33232 1.03075 1.3108L1.20165 1.0638C1.21052 1.05098 1.21052 1.03401 1.20165 1.02119L1.03075 0.774192C1.01587 0.752678 0.984064 0.752678 0.969177 0.774192Z" fill="url(#paint20_linear_418_2)"/>
<path d="M0.973017 0.807589L0.823331 1.02393C0.815563 1.03515 0.815563 1.05002 0.823331 1.06124L0.973017 1.27758C0.986056 1.29643 1.01391 1.29643 1.02695 1.27758L1.17663 1.06124C1.1844 1.05002 1.1844 1.03516 1.17663 1.02393L1.02695 0.807589C1.01391 0.788746 0.986056 0.788746 0.973017 0.807589Z" fill="url(#paint21_linear_418_2)"/>
<path d="M1.04189 0.829124C1.03108 0.813493 1.0079 0.811434 0.995736 0.826046C0.995105 0.826806 0.994497 0.827602 0.993921 0.828438L0.854631 1.02975C0.840611 1.05002 0.840611 1.07685 0.854631 1.09712L0.987525 1.28919C1.00109 1.29474 1.01774 1.29089 1.02697 1.27755L1.17665 1.06121C1.18442 1.04999 1.18442 1.03512 1.17665 1.0239L1.04189 0.829124Z" fill="url(#paint22_linear_418_2)"/>
<path d="M1.02698 0.807567C1.01955 0.796822 1.0073 0.79223 0.995728 0.793736V1.29139C1.0073 1.2929 1.01955 1.2883 1.02698 1.27756L1.17666 1.06122C1.18443 1.05 1.18443 1.03513 1.17666 1.02391L1.02698 0.807567Z" fill="url(#paint23_linear_418_2)"/>
<path d="M0.973014 1.27772C0.986053 1.29657 1.0139 1.29657 1.02694 1.27772L1.17663 1.06138C1.18051 1.05577 1.18246 1.04925 1.18246 1.04272H0.817505C0.817505 1.04925 0.819446 1.05577 0.823328 1.06138L0.973014 1.27772Z" fill="url(#paint24_linear_418_2)"/>
<defs>
<linearGradient id="paint0_linear_418_2" x1="0.718127" y1="0.466404" x2="1.29463" y2="1.404" gradientUnits="userSpaceOnUse">
<stop stop-color="#FFD945"/>
<stop offset="0.3043" stop-color="#FFCD3E"/>
<stop offset="0.8558" stop-color="#FFAD2B"/>
<stop offset="1" stop-color="#FFA325"/>
</linearGradient>
<linearGradient id="paint1_linear_418_2" x1="1.27006" y1="1.35436" x2="0.523883" y2="0.436418" gradientUnits="userSpaceOnUse">
<stop stop-color="#FFD945"/>
<stop offset="0.3043" stop-color="#FFCD3E"/>
<stop offset="0.8558" stop-color="#FFAD2B"/>
<stop offset="1" stop-color="#FFA325"/>
</linearGradient>
<linearGradient id="paint2_linear_418_2" x1="0.660094" y1="0.758629" x2="1.15401" y2="1.25254" gradientUnits="userSpaceOnUse">
<stop stop-color="#FFD945"/>
<stop offset="0.3043" stop-color="#FFCD3E"/>
<stop offset="0.8558" stop-color="#FFAD2B"/>
<stop offset="1" stop-color="#FFA325"/>
</linearGradient>
<linearGradient id="paint3_linear_418_2" x1="0.999973" y1="1.34226" x2="0.999973" y2="1.54508" gradientUnits="userSpaceOnUse">
<stop stop-color="#FFD945"/>
<stop offset="0.3043" stop-color="#FFCD3E"/>
<stop offset="0.8558" stop-color="#FFAD2B"/>
<stop offset="1" stop-color="#FFA325"/>
</linearGradient>
<linearGradient id="paint4_linear_418_2" x1="0.999973" y1="1.52707" x2="0.999973" y2="1.7299" gradientUnits="userSpaceOnUse">
<stop stop-color="#FFD945"/>
<stop offset="0.3043" stop-color="#FFCD3E"/>
<stop offset="0.8558" stop-color="#FFAD2B"/>
<stop offset="1" stop-color="#FFA325"/>
</linearGradient>
<linearGradient id="paint5_linear_418_2" x1="0.946157" y1="0.352756" x2="1.08521" y2="0.547768" gradientUnits="userSpaceOnUse">
<stop stop-color="#FFD945"/>
<stop offset="0.3043" stop-color="#FFCD3E"/>
<stop offset="0.8558" stop-color="#FFAD2B"/>
<stop offset="1" stop-color="#FFA325"/>
</linearGradient>
<linearGradient id="paint6_linear_418_2" x1="1.01359" y1="0.450445" x2="0.868318" y2="0.222129" gradientUnits="userSpaceOnUse">
<stop stop-color="#FFD945" stop-opacity="0"/>
<stop offset="1" stop-color="#FBED21"/>
</linearGradient>
<linearGradient id="paint7_linear_418_2" x1="1.00461" y1="0.479756" x2="1.20343" y2="0.0972521" gradientUnits="userSpaceOnUse">
<stop stop-color="#F35227" stop-opacity="0"/>
<stop offset="1" stop-color="#F35227"/>
</linearGradient>
<linearGradient id="paint8_linear_418_2" x1="0.522218" y1="0.565086" x2="0.661272" y2="0.760098" gradientUnits="userSpaceOnUse">
<stop stop-color="#FFD945"/>
<stop offset="0.3043" stop-color="#FFCD3E"/>
<stop offset="0.8558" stop-color="#FFAD2B"/>
<stop offset="1" stop-color="#FFA325"/>
</linearGradient>
<linearGradient id="paint9_linear_418_2" x1="0.589651" y1="0.662529" x2="0.444381" y2="0.43421" gradientUnits="userSpaceOnUse">
<stop stop-color="#FFD945" stop-opacity="0"/>
<stop offset="1" stop-color="#FBED21"/>
</linearGradient>
<linearGradient id="paint10_linear_418_2" x1="0.580688" y1="0.69205" x2="0.779497" y2="0.309543" gradientUnits="userSpaceOnUse">
<stop stop-color="#F35227" stop-opacity="0"/>
<stop offset="1" stop-color="#F35227"/>
</linearGradient>
<linearGradient id="paint11_linear_418_2" x1="1.37007" y1="0.565385" x2="1.50912" y2="0.760396" gradientUnits="userSpaceOnUse">
<stop stop-color="#FFD945"/>
<stop offset="0.3043" stop-color="#FFCD3E"/>
<stop offset="0.8558" stop-color="#FFAD2B"/>
<stop offset="1" stop-color="#FFA325"/>
</linearGradient>
<linearGradient id="paint12_linear_418_2" x1="1.43749" y1="0.662829" x2="1.29222" y2="0.43451" gradientUnits="userSpaceOnUse">
<stop stop-color="#FFD945" stop-opacity="0"/>
<stop offset="1" stop-color="#FBED21"/>
</linearGradient>
<linearGradient id="paint13_linear_418_2" x1="1.4283" y1="0.692303" x2="1.62711" y2="0.3098" gradientUnits="userSpaceOnUse">
<stop stop-color="#F35227" stop-opacity="0"/>
<stop offset="1" stop-color="#F35227"/>
</linearGradient>
<linearGradient id="paint14_linear_418_2" x1="0.0942488" y1="0.796715" x2="0.233303" y2="0.991727" gradientUnits="userSpaceOnUse">
<stop stop-color="#FFD945"/>
<stop offset="0.3043" stop-color="#FFCD3E"/>
<stop offset="0.8558" stop-color="#FFAD2B"/>
<stop offset="1" stop-color="#FFA325"/>
</linearGradient>
<linearGradient id="paint15_linear_418_2" x1="0.161674" y1="0.894644" x2="0.0164046" y2="0.666325" gradientUnits="userSpaceOnUse">
<stop stop-color="#FFD945" stop-opacity="0"/>
<stop offset="1" stop-color="#FBED21"/>
</linearGradient>
<linearGradient id="paint16_linear_418_2" x1="0.152841" y1="0.923876" x2="0.351651" y2="0.541373" gradientUnits="userSpaceOnUse">
<stop stop-color="#F35227" stop-opacity="0"/>
<stop offset="1" stop-color="#F35227"/>
</linearGradient>
<linearGradient id="paint17_linear_418_2" x1="1.79775" y1="0.797559" x2="1.93681" y2="0.992574" gradientUnits="userSpaceOnUse">
<stop stop-color="#FFD945"/>
<stop offset="0.3043" stop-color="#FFCD3E"/>
<stop offset="0.8558" stop-color="#FFAD2B"/>
<stop offset="1" stop-color="#FFA325"/>
</linearGradient>
<linearGradient id="paint18_linear_418_2" x1="1.86518" y1="0.895488" x2="1.71991" y2="0.667172" gradientUnits="userSpaceOnUse">
<stop stop-color="#FFD945" stop-opacity="0"/>
<stop offset="1" stop-color="#FBED21"/>
</linearGradient>
<linearGradient id="paint19_linear_418_2" x1="1.85588" y1="0.924635" x2="2.0547" y2="0.542131" gradientUnits="userSpaceOnUse">
<stop stop-color="#F35227" stop-opacity="0"/>
<stop offset="1" stop-color="#F35227"/>
</linearGradient>
<linearGradient id="paint20_linear_418_2" x1="1.16484" y1="1.20737" x2="0.583038" y2="0.625569" gradientUnits="userSpaceOnUse">
<stop stop-color="#FFD945"/>
<stop offset="0.3043" stop-color="#FFCD3E"/>
<stop offset="0.8558" stop-color="#FFAD2B"/>
<stop offset="1" stop-color="#FFA325"/>
</linearGradient>
<linearGradient id="paint21_linear_418_2" x1="0.89899" y1="0.966197" x2="1.14568" y2="1.1528" gradientUnits="userSpaceOnUse">
<stop stop-color="#FF7044"/>
<stop offset="1" stop-color="#F82814"/>
</linearGradient>
<linearGradient id="paint22_linear_418_2" x1="1.01123" y1="1.0518" x2="0.792051" y2="0.602301" gradientUnits="userSpaceOnUse">
<stop stop-color="#FF7044" stop-opacity="0"/>
<stop offset="1" stop-color="#FFA325"/>
</linearGradient>
<linearGradient id="paint23_linear_418_2" x1="1.01552" y1="1.04218" x2="0.836846" y2="0.750407" gradientUnits="userSpaceOnUse">
<stop stop-color="#F82814" stop-opacity="0"/>
<stop offset="1" stop-color="#C0272D"/>
</linearGradient>
<linearGradient id="paint24_linear_418_2" x1="1.03217" y1="1.09993" x2="0.902811" y2="0.88867" gradientUnits="userSpaceOnUse">
<stop stop-color="#F82814" stop-opacity="0"/>
<stop offset="1" stop-color="#C0272D"/>
</linearGradient>
</defs>
</svg>
